<?xml version="1.0" encoding="UTF-8"?>
<svg width="250px" height="250px" viewBox="0 0 250 250" version="1.1" xmlns="http://www.w3.org/2000/svg" xmlns:xlink="http://www.w3.org/1999/xlink">
    <!-- Generator: Sketch 54.1 (76490) - https://sketchapp.com -->
    <title>cat_financial-services</title>
    <desc>Created with Sketch.</desc>
    <defs>
        <circle id="path-1" cx="124.406356" cy="124.406356" r="124.406356"></circle>
    </defs>
    <g id="cat_financial-services" stroke="none" stroke-width="1" fill="none" fill-rule="evenodd">
        <g>
            <circle id="Oval" fill="#6C9641" fill-rule="nonzero" cx="125.003984" cy="125.003984" r="124.406356"></circle>
            <g id="Group" transform="translate(0.597629, 0.597629)">
                <mask id="mask-2" fill="white">
                    <use xlink:href="#path-1"></use>
                </mask>
                <use id="Mask" fill="#6C9641" fill-rule="nonzero" xlink:href="#path-1"></use>
                <g mask="url(#mask-2)" fill="#FFFFFF" fill-rule="nonzero">
                    <g transform="translate(36.256136, 35.260088)">
                        <path d="M52.7905272,156.87751 C48.6071269,154.486996 44.2245171,149.407152 43.7264933,144.327309 L43.1288647,138.151814 L103.588959,138.151814 L124.804775,119.625327 L125.003984,119.127303 C125.003984,119.127303 130.283037,105.680659 147.016638,105.680659 C153.889367,105.680659 156.180277,109.067221 157.07672,110.561293 C155.283834,112.852202 142.136004,129.486199 140.641933,131.378689 L118.928093,158.471186 C117.832441,159.766048 112.752598,165.045101 112.752598,173.013483 L112.752598,214.648276 L117.732836,214.648276 L117.732836,173.013483 C117.732836,167.037196 121.119398,163.650634 122.812679,161.558934 L122.812679,161.558934 L141.63798,138.052209 L175.204787,138.052209 L175.204787,38.3478358 L120.32256,38.3478358 L120.32256,18.3272774 C120.32256,11.4545484 114.744693,5.87668133 107.871964,5.87668133 C104.684611,5.87668133 101.796073,7.17154332 99.5051635,9.16363868 C97.8118825,4.3826098 93.2300631,0.796838146 87.8514056,0.796838146 L87.8514056,0.796838146 C82.4727481,0.796838146 77.9905336,4.28300504 76.1976477,9.16363868 C74.0063428,7.17154332 71.1178046,5.87668133 67.8308472,5.87668133 C60.9581182,5.87668133 55.3802512,11.4545484 55.3802512,18.3272774 L55.3802512,23.0087015 C53.5873653,21.7138395 51.4956652,20.8173966 49.1051508,20.8173966 C42.9296551,20.8173966 37.8498119,25.8972398 37.8498119,32.0727354 L37.8498119,38.3478358 L0.298814305,38.3478358 L0.298814305,138.251418 L37.9494167,138.251418 L38.6466501,144.924938 C39.2442787,151.100433 42.8300504,156.180277 47.710684,159.467234 L47.710684,214.74788 L52.6909224,214.74788 L52.6909224,156.87751 L52.7905272,156.87751 Z M75.2016001,38.3478358 L42.7304456,38.3478358 L42.7304456,32.0727354 C42.7304456,28.5865685 45.5193791,25.797635 49.005546,25.797635 C52.4917129,25.797635 55.2806464,28.5865685 55.2806464,32.0727354 L60.2608848,32.0727354 L60.2608848,18.3272774 C60.2608848,14.1438771 63.5478422,10.8569197 67.7312424,10.8569197 C71.9146427,10.8569197 75.2016001,14.1438771 75.2016001,18.3272774 C75.2016001,19.7217441 76.2972525,20.8173966 77.6917193,20.8173966 C79.086186,20.8173966 80.1818385,19.7217441 80.1818385,18.3272774 L80.1818385,13.3470389 C80.1818385,9.16363868 83.4687958,5.87668133 87.6521961,5.87668133 L87.6521961,5.87668133 C91.8355964,5.87668133 95.1225537,9.16363868 95.1225537,13.3470389 L95.1225537,18.3272774 L100.102792,18.3272774 C100.102792,14.1438771 103.389749,10.8569197 107.57315,10.8569197 C111.75655,10.8569197 115.043507,14.1438771 115.043507,18.3272774 L115.043507,38.3478358 L100.102792,38.3478358 L75.2016001,38.3478358 Z M5.37865749,43.3280742 L170.124944,43.3280742 L170.124944,133.171575 L145.522566,133.171575 C148.709919,129.187384 162.056958,112.254574 162.056958,112.254574 L162.953401,111.059317 L162.355772,109.66485 C162.355772,109.66485 157.973162,100.700421 146.917033,100.700421 C128.689361,100.700421 121.517817,114.744693 120.621374,116.537579 L101.596864,133.171575 L5.37865749,133.171575 L5.37865749,43.3280742 Z" id="Shape"></path>
                        <path d="M83.0703767,66.63559 C81.5763052,66.63559 80.381048,67.8308472 80.381048,69.3249187 L80.381048,69.7233378 C76.1976477,70.918595 73.1098999,74.7035762 73.1098999,79.2853956 C73.1098999,82.4727481 74.6039714,85.4608912 77.2933002,87.3533818 L85.560496,93.1304583 C86.8553579,94.0269013 87.6521961,95.3217632 87.6521961,96.9154395 C87.6521961,99.4055587 85.560496,101.497259 83.0703767,101.497259 C81.2774909,101.497259 79.5842099,100.401606 78.8869765,98.7083254 C78.2893479,97.4134634 76.6956716,96.71623 75.4008096,97.3138586 C74.1059476,97.9114872 73.4087142,99.5051635 74.0063428,100.800025 C75.3012048,103.588959 77.5921145,105.581054 80.4806528,106.477497 L80.4806528,106.975521 C80.4806528,108.469593 81.67591,109.66485 83.1699815,109.66485 C84.664053,109.66485 85.8593103,108.469593 85.8593103,106.975521 L85.8593103,106.577102 C89.9431058,105.381845 93.0308536,101.596864 93.0308536,97.0150443 C93.0308536,93.728087 91.4371773,90.6403391 88.7478485,88.7478485 L80.381048,83.0703767 C79.1857908,82.1739338 78.4885574,80.8790718 78.4885574,79.2853956 C78.4885574,76.7952763 80.5802575,74.7035762 83.0703767,74.7035762 C84.9628673,74.7035762 86.5565436,75.7992287 87.253777,77.4925097 C87.7518009,78.7873717 89.4450819,79.4846051 90.7399439,78.8869765 C92.0348059,78.3889526 92.7320393,76.6956716 92.1344107,75.4008096 C90.9391534,72.5122713 88.548639,70.5201759 85.6601007,69.623733 L85.6601007,69.225314 C85.7597055,67.8308472 84.664053,66.63559 83.0703767,66.63559 L83.0703767,66.63559 Z" id="Path"></path>
                        <path d="M82.6719577,125.900427 C61.7549563,125.900427 44.722541,108.868012 44.722541,87.9510104 C44.722541,67.0340091 61.7549563,50.0015937 82.6719577,50.0015937 C103.588959,50.0015937 120.621374,67.0340091 120.621374,87.9510104 C120.621374,108.868012 103.588959,125.900427 82.6719577,125.900427 Z M82.6719577,55.3802512 C64.7430994,55.3802512 50.1011984,70.0221521 50.1011984,87.9510104 C50.1011984,105.879869 64.7430994,120.52177 82.6719577,120.52177 C100.600816,120.52177 115.242717,105.879869 115.242717,87.9510104 C115.242717,70.0221521 100.700421,55.3802512 82.6719577,55.3802512 Z" id="Shape"></path>
                    </g>
                </g>
            </g>
        </g>
    </g>
</svg>